<?xml version="1.0" standalone="no"?>
<!DOCTYPE svg PUBLIC "-//W3C//DTD SVG 20010904//EN"
 "http://www.w3.org/TR/2001/REC-SVG-20010904/DTD/svg10.dtd">
<svg version="1.0"
  xmlns="http://www.w3.org/2000/svg" width="500.000000pt" height="500.000000pt" viewBox="0 0 500.000000 500.000000" preserveAspectRatio="xMidYMid meet">

  <g transform="translate(0.000000,500.000000) scale(0.100000,-0.100000)" fill="#000000" stroke="none">
    <path d="M2050 3635 c0 -5 5 -17 10 -25 5 -8 10 -10 10 -5 0 6 -5 17 -10 25
-5 8 -10 11 -10 5z"/>
    <path d="M2011 3532 c-1 -51 54 -181 108 -252 45 -59 134 -150 299 -302 61
-57 79 -86 45 -75 -95 31 -102 32 -130 10 -46 -33 -43 -79 6 -136 31 -35 30
-43 -9 -70 -34 -24 -47 -21 -53 11 -10 50 -44 82 -87 82 -46 0 -61 -16 -68
-75 -4 -40 -8 -45 -29 -45 -13 0 -34 5 -45 11 -14 8 -18 8 -14 0 4 -6 25 -16
46 -22 30 -9 40 -17 40 -33 0 -12 11 -38 25 -58 30 -44 31 -50 5 -73 -10 -9
-18 -22 -17 -28 1 -6 -19 -22 -44 -36 -42 -23 -50 -24 -87 -13 -55 17 -73 49
-83 151 -10 91 -25 124 -72 151 -36 20 -82 4 -82 -30 0 -20 -11 -30 -52 -51
-45 -23 -53 -24 -56 -10 -3 9 -5 1 -6 -16 -1 -37 4 -40 31 -16 10 9 40 24 66
32 42 14 47 19 50 49 3 27 7 33 24 30 12 -2 30 -16 42 -31 20 -28 24 -59 16
-154 l-3 -43 -46 -1 -46 -2 40 -6 40 -6 -42 -13 c-24 -7 -54 -27 -73 -49 -28
-32 -32 -42 -27 -80 4 -40 -5 -58 -16 -30 -4 8 -6 8 -6 0 -2 -20 50 -53 82
-53 l30 0 -27 25 c-32 30 -33 65 -3 101 18 21 29 26 48 21 29 -7 61 -58 53
-84 -3 -10 3 -3 15 15 23 36 67 59 170 88 51 15 68 26 87 54 26 38 30 61 13
92 -9 16 -8 24 4 36 14 13 13 18 -4 41 -43 59 -32 151 18 151 24 0 73 -43 73
-64 0 -6 -7 0 -16 12 -22 32 -72 30 -80 -3 -8 -31 12 -82 37 -95 27 -15 46 -2
58 38 l10 37 -2 -47 c-2 -49 7 -63 18 -29 3 11 21 25 39 31 19 6 42 20 51 30
10 11 31 20 47 20 28 0 37 -13 18 -25 -5 -3 -10 -16 -10 -27 0 -26 -65 -88
-92 -88 -15 0 -18 4 -14 17 6 15 5 15 -13 -1 -12 -11 -29 -16 -41 -13 -14 3
-20 1 -17 -6 2 -7 12 -14 23 -16 10 -2 34 -16 52 -32 43 -38 102 -40 137 -4
29 28 34 94 10 135 -8 14 -14 37 -15 53 0 20 -5 27 -20 27 -34 0 -80 29 -100
63 -36 59 -22 102 33 100 45 -1 94 -37 109 -80 15 -41 32 -43 23 -3 -14 64 24
27 80 -78 35 -65 77 -92 136 -91 l44 2 -43 6 c-55 10 -102 55 -132 129 -12 31
-33 71 -46 89 -14 18 -21 38 -18 47 3 9 3 28 0 42 -6 24 -10 26 -42 21 -34 -6
-41 -1 -156 105 l-120 112 5 39 c3 22 15 53 26 68 24 33 21 45 -22 79 l-31 25
24 -33 c20 -26 22 -37 14 -60 -31 -88 -156 31 -198 189 -13 46 -15 49 -15 21z
m189 -796 c0 -8 -4 -17 -9 -21 -12 -7 -24 12 -16 25 9 15 25 12 25 -4z m-37
-139 c-7 -11 -23 12 -23 33 1 12 4 11 15 -4 8 -10 12 -23 8 -29z m-269 -153
c3 -8 2 -12 -4 -9 -6 3 -10 10 -10 16 0 14 7 11 14 -7z m41 -44 c3 -5 2 -10
-4 -10 -5 0 -13 5 -16 10 -3 6 -2 10 4 10 5 0 13 -4 16 -10z"/>
    <path d="M2090 3540 c6 -11 13 -20 16 -20 2 0 0 9 -6 20 -6 11 -13 20 -16 20
-2 0 0 -9 6 -20z"/>
    <path d="M1902 3390 c0 -14 2 -19 5 -12 2 6 2 18 0 25 -3 6 -5 1 -5 -13z"/>
    <path d="M1893 3280 c0 -25 2 -35 4 -22 2 12 2 32 0 45 -2 12 -4 2 -4 -23z"/>
    <path d="M1901 3170 c0 -30 3 -61 8 -68 4 -7 6 13 4 45 -6 79 -11 89 -12 23z"/>
    <path d="M3004 3189 c30 -36 35 -92 10 -127 -12 -17 -25 -22 -60 -22 -39 0
-47 -4 -64 -32 -26 -43 -25 -64 6 -127 27 -58 41 -134 30 -175 -4 -17 -19 -33
-41 -43 l-34 -16 38 -27 c67 -49 88 -130 56 -220 -8 -23 -15 -54 -15 -69 0
-29 34 -91 50 -91 5 0 1 9 -10 20 -11 11 -20 27 -20 34 0 13 5 13 36 0 59 -25
123 -11 180 39 47 41 86 51 127 33 24 -11 22 12 -4 44 -11 14 -18 19 -14 13 4
-9 -5 -13 -33 -13 -29 0 -50 -9 -86 -37 -35 -27 -55 -36 -83 -35 -40 2 -65 18
-61 41 1 9 -3 25 -9 36 -6 11 -13 44 -17 74 -6 49 -5 53 11 46 109 -44 237 40
227 148 -4 41 -36 101 -61 116 -18 9 -21 63 -4 69 14 5 15 22 1 22 -20 0 -50
-41 -50 -67 0 -16 12 -41 26 -58 14 -16 23 -23 19 -15 -4 8 3 4 14 -9 29 -32
28 -85 -3 -116 -13 -13 -22 -25 -21 -27 11 -11 -71 -5 -95 7 -34 18 -65 63
-35 51 15 -5 16 -4 6 8 -7 9 -21 18 -32 21 -14 5 -19 16 -19 46 0 22 -7 55
-14 74 -8 19 -13 35 -10 35 3 0 -4 13 -16 30 -27 38 -35 99 -16 125 10 14 17
17 27 9 20 -16 74 1 92 29 29 45 26 125 -8 161 -34 37 -52 33 -21 -5z m-24
-569 c0 -5 -4 -10 -10 -10 -5 0 -10 5 -10 10 0 6 5 10 10 10 6 0 10 -4 10 -10z"/>
    <path d="M3100 3069 c0 -11 -5 -30 -11 -42 -10 -21 -10 -21 5 -3 15 18 22 66
11 66 -3 0 -5 -9 -5 -21z"/>
    <path d="M2772 2970 c0 -19 2 -27 5 -17 2 9 2 25 0 35 -3 9 -5 1 -5 -18z"/>
    <path d="M3059 2983 c-13 -16 -12 -17 4 -4 16 13 21 21 13 21 -2 0 -10 -8 -17
-17z"/>
    <path d="M2271 2934 c-23 -29 -24 -38 -11 -69 7 -16 9 -13 9 17 1 42 36 74 71
65 11 -3 18 -1 14 4 -12 20 -63 9 -83 -17z"/>
    <path d="M2988 2943 c7 -3 16 -2 19 1 4 3 -2 6 -13 5 -11 0 -14 -3 -6 -6z"/>
    <path d="M2362 2878 c-36 -36 16 -112 72 -106 27 3 31 8 34 34 5 52 -73 105
-106 72z m18 -34 c0 -14 -4 -23 -10 -19 -5 3 -10 15 -10 26 0 10 5 19 10 19 6
0 10 -12 10 -26z"/>
    <path d="M3206 2853 c-6 -14 -5 -15 5 -6 7 7 10 15 7 18 -3 3 -9 -2 -12 -12z"/>
    <path d="M2122 2834 c-16 -11 -22 -25 -21 -52 l1 -37 7 31 c4 17 11 36 15 42
9 15 41 15 68 1 11 -6 22 -8 25 -6 5 6 -50 37 -64 37 -5 0 -19 -7 -31 -16z"/>
    <path d="M3272 2690 c0 -14 2 -19 5 -12 2 6 2 18 0 25 -3 6 -5 1 -5 -13z"/>
    <path d="M3150 2690 c0 -7 -8 -22 -17 -32 -15 -17 -15 -18 0 -13 17 7 33 42
23 52 -3 4 -6 0 -6 -7z"/>
    <path d="M3272 2640 c0 -14 2 -19 5 -12 2 6 2 18 0 25 -3 6 -5 1 -5 -13z"/>
    <path d="M3078 2633 c6 -2 18 -2 25 0 6 3 1 5 -13 5 -14 0 -19 -2 -12 -5z"/>
    <path d="M1990 2568 c0 -16 11 -39 26 -55 15 -15 21 -20 14 -11 -7 10 -18 35
-26 55 -12 34 -13 35 -14 11z"/>
    <path d="M1714 2558 l-19 -23 23 19 c21 18 27 26 19 26 -2 0 -12 -10 -23 -22z"/>
    <path d="M2710 2574 c0 -3 10 -14 22 -24 20 -16 23 -27 23 -105 l0 -87 36 -31
c19 -18 50 -40 67 -49 45 -24 45 -79 1 -128 -29 -33 -30 -34 -25 -9 6 28 -17
69 -38 69 -39 0 -120 36 -143 64 -24 29 -25 34 -18 109 6 72 5 82 -17 113 -21
33 -26 35 -62 30 -86 -10 -101 -91 -34 -188 23 -35 45 -81 50 -106 7 -40 5
-49 -17 -78 -14 -18 -49 -45 -78 -59 -28 -15 -60 -34 -69 -42 -20 -18 -24 -4
-5 17 10 12 9 12 -4 2 -25 -19 -16 -112 11 -112 5 0 4 11 -2 25 -15 34 8 59
87 95 68 30 82 44 100 96 17 51 3 104 -45 172 -45 63 -53 117 -22 145 44 40
82 -4 82 -95 0 -114 28 -155 132 -193 76 -27 93 -56 65 -105 -21 -35 -14 -76
17 -91 20 -10 20 -10 2 5 -22 17 -26 70 -8 88 9 9 12 5 12 -19 0 -17 9 -41 21
-54 19 -23 20 -23 10 -2 -18 35 -13 69 14 101 18 21 31 29 46 25 12 -3 40 5
69 21 26 14 55 24 63 20 20 -7 31 -52 16 -70 -7 -8 -7 -14 -1 -14 5 0 15 7 22
15 7 8 9 15 4 15 -4 0 0 6 10 13 11 8 16 21 13 33 -4 17 -5 16 -6 -3 0 -13 -4
-23 -9 -23 -4 0 -12 10 -17 23 -13 30 -45 32 -95 7 -50 -26 -64 -19 -56 29 5
30 1 42 -25 74 -28 35 -31 43 -25 87 4 29 2 51 -4 55 -5 3 -10 14 -10 24 0 10
-12 27 -26 37 -14 10 -45 34 -67 51 -39 30 -67 42 -67 27z m137 -115 c1 -8 6
-26 9 -42 6 -28 -12 -87 -27 -87 -20 0 -39 48 -39 97 0 50 1 52 27 49 14 -2
28 -9 30 -17z"/>
    <path d="M2358 2454 c-33 -17 -58 -62 -58 -101 0 -15 18 -57 40 -93 56 -91 52
-133 -17 -180 -31 -21 -48 -25 -114 -25 -43 0 -75 3 -73 7 3 4 13 8 22 9 11 0
12 2 4 6 -23 9 -62 -25 -62 -55 1 -25 2 -26 15 -8 14 19 20 19 121 16 48 -2
70 2 100 19 99 56 108 142 28 251 -26 36 -31 97 -6 93 6 -2 12 7 12 19 0 12 7
30 17 40 19 22 8 23 -29 2z"/>
    <path d="M1719 2443 c-13 -16 -12 -17 4 -4 9 7 17 15 17 17 0 8 -8 3 -21 -13z"/>
    <path d="M2185 2434 c-16 -8 -39 -23 -50 -33 -11 -10 -41 -25 -67 -35 -80 -29
-99 -90 -52 -160 15 -22 29 -58 32 -81 4 -37 1 -46 -24 -69 -57 -53 -154 -27
-167 44 -3 19 -5 16 -6 -12 -2 -71 98 -120 168 -82 51 28 84 80 76 123 -6 32
-23 70 -36 81 -10 8 -29 48 -29 59 0 6 8 11 19 11 10 0 30 9 45 21 18 14 26
16 27 7 0 -7 8 7 17 32 11 29 32 55 60 77 46 35 38 44 -13 17z m-68 -100 c-3
-3 -12 -4 -19 -1 -8 3 -5 6 6 6 11 1 17 -2 13 -5z m-47 -14 c0 -5 -5 -10 -11
-10 -5 0 -7 5 -4 10 3 6 8 10 11 10 2 0 4 -4 4 -10z"/>
    <path d="M3170 2420 c-9 -6 -10 -10 -3 -10 6 0 15 5 18 10 8 12 4 12 -15 0z"/>
    <path d="M2376 2365 c4 -8 11 -15 16 -15 6 0 5 6 -2 15 -7 8 -14 15 -16 15 -2
0 -1 -7 2 -15z"/>
    <path d="M2445 2302 c21 -23 40 -42 42 -42 9 0 -24 38 -51 59 -26 21 -25 18 9
-17z"/>
    <path d="M3209 2303 c-13 -16 -12 -17 4 -4 9 7 17 15 17 17 0 8 -8 3 -21 -13z"/>
    <path d="M3308 2313 c7 -3 16 -2 19 1 4 3 -2 6 -13 5 -11 0 -14 -3 -6 -6z"/>
    <path d="M2130 2281 c0 -6 4 -13 10 -16 6 -3 7 1 4 9 -7 18 -14 21 -14 7z"/>
    <path d="M985 2180 c-60 -20 -117 -38 -125 -41 -24 -9 4 -84 40 -105 28 -17
28 -18 10 -31 -17 -12 -18 -17 -6 -51 8 -23 25 -44 46 -56 l33 -19 116 37 c64
21 120 42 125 46 14 13 -14 79 -40 97 -22 14 -23 18 -11 31 26 25 -4 92 -52
116 -23 11 -39 9 -136 -24z m135 10 c8 -5 12 -11 10 -13 -3 -2 -52 -19 -110
-38 l-105 -34 1 -32 c2 -28 0 -31 -16 -23 -17 9 -45 69 -36 78 7 6 209 70 226
71 8 0 22 -3 30 -9z m39 -51 c6 -18 11 -33 11 -35 0 -2 -18 -9 -41 -15 -38
-12 -40 -15 -35 -43 8 -40 10 -41 56 -26 46 15 50 13 53 -25 2 -27 -2 -29
-105 -64 -111 -36 -120 -36 -132 6 -6 18 -1 23 31 33 53 18 53 17 41 50 -11
32 -22 36 -64 20 -31 -12 -40 -6 -49 30 -6 24 -2 27 102 62 59 20 111 37 115
37 3 1 11 -13 17 -30z m4 -83 c16 -13 16 -15 -13 -25 -25 -8 -32 -8 -37 5 -3
9 0 20 8 25 18 11 21 11 42 -5z m-139 -32 c10 -27 7 -30 -35 -43 -38 -12 -41
-14 -35 -42 3 -16 2 -29 -3 -29 -14 0 -31 25 -37 58 -6 29 -4 31 30 37 19 4
40 13 47 21 15 18 25 18 33 -2z"/>
    <path d="M1043 2109 c-51 -17 -93 -34 -93 -39 0 -13 0 -13 48 4 l41 15 19 -59
20 -59 -41 -14 c-22 -7 -42 -18 -45 -25 -4 -12 177 44 193 61 7 6 2 8 -15 3
-79 -21 -76 -22 -94 30 -22 66 -21 69 24 83 22 6 40 16 40 21 0 6 -1 10 -2 9
-2 0 -45 -14 -95 -30z"/>
    <path d="M2207 2209 c7 -7 15 -10 18 -7 3 3 -2 9 -12 12 -14 6 -15 5 -6 -5z"/>
    <path d="M2501 2204 c0 -11 3 -14 6 -6 3 7 2 16 -1 19 -3 4 -6 -2 -5 -13z"/>
    <path d="M3756 2189 c-47 -55 -27 -179 31 -194 15 -3 39 -19 53 -35 26 -30
131 -70 182 -70 74 0 122 129 84 222 -20 46 -31 54 -116 83 -80 27 -110 31
-126 15 -8 -8 -19 -8 -38 0 -39 14 -41 14 -70 -21z m67 5 c3 -3 -3 -20 -14
-37 -10 -18 -19 -47 -19 -64 0 -18 -2 -33 -4 -33 -20 0 -36 17 -42 45 -9 52
49 118 79 89z m166 -14 c36 -12 71 -26 78 -32 31 -25 -2 -169 -43 -185 -20 -7
-101 12 -161 38 -41 17 -43 20 -43 59 0 40 20 101 41 127 16 18 53 16 128 -7z
m-178 -71 c-9 -22 -10 -22 -10 -3 -1 11 2 24 6 27 12 12 14 0 4 -24z m299 -67
c0 -51 -38 -125 -70 -136 -48 -16 -210 47 -210 83 0 4 37 -5 82 -21 69 -24 86
-27 110 -17 27 11 68 78 68 112 0 9 5 17 10 17 6 0 10 -17 10 -38z m-301 -14
c11 -29 9 -31 -23 -19 -31 12 -35 41 -6 41 12 0 24 -9 29 -22z"/>
    <path d="M3772 2160 c-14 -24 -16 -70 -2 -70 6 0 10 13 10 29 0 17 5 33 10 36
12 7 13 25 2 25 -4 0 -13 -9 -20 -20z"/>
    <path d="M3865 2146 c-25 -38 -30 -90 -11 -109 18 -18 106 -47 143 -47 24 0
48 29 58 72 12 46 -2 65 -61 87 -74 28 -109 27 -129 -3z m110 -9 l60 -22 -1
-43 c0 -25 -8 -50 -17 -59 -14 -14 -21 -14 -84 8 l-68 24 1 44 c1 30 7 48 19
58 23 16 17 17 90 -10z"/>
    <path d="M3891 2116 c-24 -29 -8 -50 52 -71 51 -17 59 -18 67 -5 18 29 11 51
-23 65 -59 25 -83 27 -96 11z m78 -17 c26 -8 41 -18 39 -26 -3 -16 -4 -16 -70
-7 -27 4 -48 10 -48 14 0 21 14 41 25 36 7 -2 32 -10 54 -17z"/>
    <path d="M2250 2186 c0 -2 8 -10 18 -17 15 -13 16 -12 3 4 -13 16 -21 21 -21
13z"/>
    <path d="M1970 2152 c0 -6 5 -14 10 -17 16 -10 11 -44 -10 -65 -13 -13 -16
-20 -7 -20 15 0 57 41 57 56 0 6 -11 21 -25 34 -14 13 -25 18 -25 12z"/>
    <path d="M2281 2123 c0 -20 -9 -37 -23 -47 -12 -9 -18 -16 -12 -16 22 0 46 38
41 67 -4 28 -4 28 -6 -4z"/>
    <path d="M2447 2105 c-15 -14 -24 -25 -19 -25 5 0 19 11 32 25 30 32 23 32
-13 0z"/>
    <path d="M3140 2115 c-7 -9 -11 -17 -9 -20 3 -2 10 5 17 15 14 24 10 26 -8 5z"/>
    <path d="M2958 2103 c7 -3 16 -2 19 1 4 3 -2 6 -13 5 -11 0 -14 -3 -6 -6z"/>
    <path d="M2589 2073 c-13 -16 -12 -17 4 -4 16 13 21 21 13 21 -2 0 -10 -8 -17
-17z"/>
    <path d="M2506 2031 c-4 -5 3 -7 14 -4 23 6 26 13 6 13 -8 0 -17 -4 -20 -9z"/>
    <path d="M2936 1975 c-11 -8 -15 -15 -9 -15 6 0 16 7 23 15 16 19 11 19 -14 0z"/>
    <path d="M3750 1935 c-16 -25 -20 -43 -15 -65 6 -27 4 -30 -17 -30 -34 0 -60
-50 -52 -101 6 -38 11 -42 113 -99 58 -33 113 -60 121 -60 24 0 52 60 44 96
-5 27 -3 31 17 30 35 -1 63 54 52 102 -8 34 -17 42 -118 99 -61 34 -113 63
-117 63 -3 0 -16 -16 -28 -35z m134 -41 c56 -31 102 -58 104 -59 2 -2 -4 -17
-12 -33 l-16 -30 -39 21 c-40 22 -40 22 -55 2 -23 -30 -19 -43 15 -60 17 -9
37 -31 45 -51 13 -31 13 -38 -3 -64 -9 -17 -20 -30 -24 -30 -4 0 -55 27 -113
61 -79 45 -106 66 -106 81 0 18 6 16 68 -18 151 -85 141 -82 157 -60 21 28 19
42 -2 18 -18 -21 -18 -21 -120 36 -56 31 -102 62 -103 67 0 6 7 21 16 33 l16
23 35 -22 36 -22 18 24 c25 33 24 37 -16 60 -19 12 -35 23 -35 25 0 8 24 54
28 54 3 0 51 -25 106 -56z m-99 -38 c11 -8 16 -19 12 -30 -9 -23 -47 -3 -47
24 0 23 9 25 35 6z m207 -111 c-8 -16 -16 -32 -18 -34 -1 -1 -20 6 -41 17 -21
11 -46 23 -56 26 -15 5 -15 9 -5 25 12 19 12 19 52 -1 38 -19 40 -20 53 -2 7
10 13 23 14 28 0 6 4 2 8 -9 5 -13 3 -31 -7 -50z"/>
    <path d="M3780 1913 c0 -4 18 -18 40 -31 l39 -22 -31 -54 -31 -55 -40 20 c-62
32 -54 15 10 -21 32 -18 73 -42 91 -52 17 -11 32 -15 32 -9 0 6 -18 20 -41 31
l-40 21 27 47 c37 66 37 66 75 43 19 -12 38 -21 42 -21 20 0 -9 22 -81 62 -93
52 -92 52 -92 41z"/>
    <path d="M1287 1926 c-22 -23 -33 -27 -110 -30 -77 -3 -93 -8 -152 -40 -36
-21 -65 -39 -65 -42 0 -21 37 -67 66 -82 31 -16 34 -20 20 -31 -14 -12 -13
-17 4 -50 13 -27 28 -40 56 -49 35 -10 42 -9 91 19 56 32 143 125 143 153 0
10 4 14 10 11 5 -3 23 1 40 10 21 11 30 23 30 40 0 31 -36 91 -58 98 -9 3 -25
8 -34 12 -12 5 -25 -1 -41 -19z m59 -13 c-3 -8 -6 -18 -6 -22 0 -4 -10 -12
-23 -18 -17 -8 -28 -7 -42 3 -18 13 -18 14 4 14 18 0 22 4 17 17 -8 20 9 32
36 25 12 -3 17 -10 14 -19z m-116 -33 c0 -5 -15 -10 -33 -10 -18 0 -66 -16
-106 -35 -59 -29 -72 -38 -66 -53 4 -9 9 -23 12 -31 9 -21 -34 5 -47 29 -17
31 -12 39 43 67 73 37 197 58 197 33z m60 -42 c37 -60 36 -73 -10 -128 -36
-42 -135 -110 -145 -98 -1 2 -8 14 -15 27 -11 21 -10 26 11 41 21 16 21 20 9
49 -14 36 -11 35 -46 19 -23 -11 -28 -10 -40 7 -8 10 -14 24 -14 30 0 25 132
76 218 84 7 0 21 -14 32 -31z m56 15 c12 -16 15 -16 24 -3 8 13 10 13 10 -2 0
-22 -23 -23 -40 -3 -7 9 -15 13 -18 10 -8 -7 29 -45 44 -45 7 0 20 10 28 22 9
12 16 18 16 12 0 -19 -38 -46 -57 -40 -22 7 -46 43 -38 56 9 14 16 12 31 -7z
m-217 -132 c9 -15 6 -22 -14 -35 -24 -16 -25 -18 -10 -46 14 -27 14 -29 -2
-23 -24 8 -52 44 -53 65 0 9 9 19 19 23 11 3 22 12 25 20 8 21 23 19 35 -4z"/>
    <path d="M1179 1831 c-37 -8 -114 -50 -105 -58 2 -3 14 1 26 7 25 14 27 12 64
-53 l27 -47 -26 -12 c-14 -6 -25 -15 -25 -20 0 -19 100 47 125 81 30 44 32 72
7 94 -20 18 -35 19 -93 8z m91 -31 c12 -22 -5 -55 -48 -93 -19 -17 -20 -17
-50 35 -27 48 -29 54 -14 66 9 6 35 12 59 12 32 0 45 -5 53 -20z"/>
    <path d="M1188 1793 c-22 -6 -22 -8 -2 -39 l17 -25 23 22 c42 39 24 58 -38 42z
m52 -12 c0 -5 -7 -14 -16 -22 -13 -10 -17 -10 -24 1 -6 9 -4 17 3 22 16 10 37
10 37 -1z"/>
    <path d="M2451 1927 c-13 -21 -12 -21 5 -5 10 10 16 20 13 22 -3 3 -11 -5 -18
-17z"/>
    <path d="M3602 1697 c-13 -14 -22 -36 -22 -56 0 -28 -3 -32 -21 -26 -32 11
-68 -38 -69 -92 0 -40 3 -44 94 -122 52 -45 99 -81 104 -81 20 0 62 62 62 90
0 24 3 27 21 23 30 -8 68 41 69 89 0 31 -7 42 -51 82 -36 32 -60 46 -80 46
-24 0 -33 7 -46 35 -20 41 -32 43 -61 12z m55 -34 c10 -21 18 -39 19 -41 1 -2
11 1 22 7 17 9 29 4 71 -29 28 -22 51 -44 51 -48 0 -5 -10 -18 -23 -30 l-23
-22 -24 25 c-29 31 -53 32 -72 3 -13 -20 -12 -24 18 -51 32 -27 33 -30 18 -53
-9 -13 -21 -24 -26 -24 -5 0 -49 35 -98 78 l-88 77 23 24 23 24 34 -27 c19
-14 38 -26 41 -26 13 0 7 31 -12 69 -18 34 -18 40 -5 60 21 30 32 26 51 -16z
m-42 -91 c-9 -9 -25 11 -25 31 1 21 1 21 15 -3 7 -14 12 -27 10 -28z m131 -58
l35 -27 24 23 c23 22 25 22 25 4 0 -10 -11 -32 -23 -48 l-24 -29 -49 34 c-27
18 -51 35 -53 36 -4 3 19 33 26 33 2 0 20 -12 39 -26z m-162 -47 c109 -95 101
-91 125 -66 l21 23 0 -25 c0 -14 -10 -35 -23 -47 l-23 -22 -92 81 c-56 49 -92
88 -92 100 0 10 3 19 6 19 4 0 39 -28 78 -63z"/>
    <path d="M3620 1662 c0 -7 9 -31 20 -53 l21 -40 -21 -30 -22 -30 -35 31 c-19
17 -38 28 -41 25 -4 -4 3 -14 15 -23 11 -9 46 -39 77 -66 62 -54 85 -59 31 -6
l-34 33 31 38 c36 45 48 47 90 18 40 -29 46 -18 8 15 -34 28 -59 33 -77 15 -8
-8 -18 1 -37 37 -14 27 -25 43 -26 36z"/>
    <path d="M1292 1678 c-16 -18 -18 -27 -10 -42 15 -27 -22 -56 -71 -56 -20 0
-47 -9 -61 -19 -22 -17 -23 -22 -12 -43 7 -12 34 -46 60 -75 60 -65 104 -77
146 -38 23 21 26 28 15 41 -10 12 -8 19 12 40 20 21 30 25 59 20 26 -4 40 -1
57 16 13 12 23 26 23 31 0 10 -59 86 -97 125 -15 15 -34 22 -61 22 -27 0 -45
-7 -60 -22z m78 6 c0 -4 -8 -13 -17 -20 -16 -11 -16 -16 -5 -34 12 -20 10 -25
-25 -55 -44 -39 -49 -41 -57 -19 -4 9 4 24 20 38 24 20 25 24 13 44 -12 19
-11 23 6 36 20 15 65 22 65 10z m109 -148 c-18 -19 -19 -19 -38 -2 -19 18 -21
17 -71 -25 -48 -40 -49 -43 -33 -61 15 -17 15 -19 -3 -33 -26 -20 -26 -20 -64
28 -68 82 -65 75 -44 98 l18 20 16 -21 c15 -20 16 -20 66 23 47 40 50 45 37
63 -12 17 -12 21 7 36 21 17 23 16 75 -45 52 -61 53 -62 34 -81z m-259 27 c0
-3 -7 -15 -16 -24 -15 -17 -13 -22 36 -79 43 -50 48 -60 32 -60 -12 0 -43 25
-78 65 -55 64 -56 66 -39 85 17 19 65 28 65 13z"/>
    <path d="M1380 1643 c0 -3 7 -15 17 -25 9 -10 14 -19 12 -21 -2 -2 -33 -27
-68 -57 l-63 -54 -17 23 c-9 12 -20 19 -23 15 -4 -3 9 -26 30 -50 38 -47 65
-60 39 -20 -15 23 -14 25 49 76 63 51 65 52 84 35 35 -32 30 -11 -8 37 -34 44
-52 58 -52 41z"/>
    <path d="M3088 1677 c-35 -16 -45 -26 -39 -36 6 -10 13 -11 29 -2 42 22 47 15
44 -55 -3 -59 -2 -65 15 -62 16 3 18 14 18 87 0 48 -4 85 -10 87 -5 1 -31 -7
-57 -19z"/>
    <path d="M1852 1683 c-18 -7 -52 -77 -52 -107 0 -37 42 -63 76 -47 27 12 54
65 54 105 0 37 -42 64 -78 49z m42 -55 c-13 -43 -35 -79 -44 -73 -25 16 2 95
32 95 15 0 18 -5 12 -22z"/>
    <path d="M2980 1635 c-30 -10 -35 -17 -33 -40 4 -51 10 -57 49 -49 33 6 36 5
32 -17 -2 -18 -10 -25 -30 -27 -37 -4 -37 -32 0 -32 40 0 72 26 72 59 0 36
-17 51 -57 51 -39 0 -43 17 -8 30 24 9 32 25 18 33 -5 2 -24 -1 -43 -8z"/>
    <path d="M1952 1628 c-7 -7 -12 -27 -12 -45 0 -26 5 -36 23 -42 12 -5 25 -7
30 -4 4 2 7 0 7 -5 0 -15 -29 -23 -56 -16 -18 5 -24 2 -24 -10 0 -19 40 -31
70 -21 27 8 60 62 60 96 0 47 -66 79 -98 47z m61 -32 c8 -19 -20 -43 -34 -29
-12 12 -1 43 16 43 7 0 15 -6 18 -14z"/>
    <path d="M2075 1601 c-6 -11 1 -16 38 -25 33 -8 31 -31 -3 -31 -31 0 -38 -25
-11 -32 13 -3 21 -12 19 -22 -4 -17 -30 -19 -62 -6 -14 6 -17 4 -14 -11 5 -26
61 -41 94 -25 23 10 26 16 21 46 -3 19 -1 37 4 40 5 4 9 17 9 31 0 17 -8 27
-26 34 -32 13 -61 13 -69 1z"/>
    <path d="M2842 1595 c-42 -18 -33 -38 14 -29 38 7 47 -9 14 -26 -29 -16 -26
-42 4 -34 32 8 45 -15 20 -33 -10 -8 -27 -12 -37 -9 -13 3 -17 0 -15 -12 8
-38 108 -1 108 39 0 5 -8 17 -17 27 -10 9 -17 28 -15 41 3 15 -3 30 -14 38
-22 16 -21 16 -62 -2z"/>
    <path d="M2228 1564 c-16 -8 -28 -21 -28 -29 0 -18 12 -19 29 -2 10 10 11 7 7
-13 -13 -60 -11 -104 5 -108 13 -2 19 12 28 73 6 42 11 80 11 85 0 14 -21 12
-52 -6z"/>
    <path d="M2646 1555 c-20 -20 -20 -25 -1 -52 10 -14 12 -24 5 -28 -20 -12 -11
-55 15 -67 39 -17 85 6 85 44 0 16 -6 31 -15 34 -11 5 -12 9 -2 25 26 42 -50
81 -87 44z m54 -31 c0 -17 -22 -14 -28 4 -2 7 3 12 12 12 9 0 16 -7 16 -16z
m18 -71 c5 -17 -26 -29 -40 -15 -6 6 -7 15 -3 22 9 14 37 9 43 -7z"/>
    <path d="M2390 1545 c-9 -11 -10 -22 -3 -37 7 -16 5 -29 -6 -49 -12 -22 -13
-30 -3 -42 20 -24 61 -30 88 -12 28 18 31 41 7 67 -9 10 -11 18 -5 18 17 0 25
39 12 55 -16 20 -74 19 -90 0z m58 -27 c-6 -18 -28 -21 -28 -4 0 9 7 16 16 16
9 0 14 -5 12 -12z m2 -79 c0 -25 -33 -22 -38 4 -2 12 3 17 17 17 15 0 21 -6
21 -21z"/>
    <path d="M2522 1548 c-14 -14 -16 -44 -3 -53 6 -3 4 -16 -4 -32 -27 -51 29
-92 80 -59 28 19 32 47 10 66 -11 9 -13 16 -5 24 15 15 12 53 -6 60 -25 10
-59 7 -72 -6z m56 -30 c-3 -7 -11 -13 -18 -13 -7 0 -15 6 -17 13 -3 7 4 12 17
12 13 0 20 -5 18 -12z m5 -64 c9 -10 -4 -34 -18 -34 -17 0 -28 17 -20 30 7 11
28 13 38 4z"/>
    <path d="M2787 1454 c-14 -14 -7 -35 11 -32 9 2 17 10 17 17 0 16 -18 25 -28
15z"/>
    <path d="M3293 1399 c-42 -29 -73 -57 -73 -67 -1 -16 -1 -16 -11 1 -16 27 -46
20 -85 -18 -19 -19 -41 -35 -49 -35 -26 0 -78 -54 -101 -105 -19 -40 -23 -45
-23 -24 -1 14 -7 33 -13 42 -17 22 -81 8 -108 -24 -18 -22 -21 -23 -30 -7 -15
25 -68 13 -101 -21 -25 -27 -26 -27 -49 -9 -18 14 -40 18 -106 18 -77 0 -86
-2 -115 -28 l-31 -27 9 -130 8 -130 37 -3 c40 -3 98 29 98 55 0 7 15 19 33 27
40 19 70 45 87 76 13 24 15 21 34 -60 l21 -85 35 3 c23 2 44 13 62 32 26 28
28 29 38 11 21 -40 131 16 130 67 -1 9 -7 46 -15 82 -20 92 -18 94 16 15 36
-83 63 -115 99 -115 42 0 132 51 158 89 36 55 37 77 9 141 -18 42 -21 57 -11
53 8 -3 21 0 28 6 23 19 58 -37 47 -75 -10 -34 14 -84 39 -84 8 0 45 20 82 45
54 36 69 52 77 81 8 30 7 43 -7 66 -14 23 -22 28 -43 23 -36 -8 -62 31 -53 79
6 36 -17 87 -40 85 -6 0 -44 -22 -83 -50z m95 19 c5 -7 10 -26 10 -42 0 -19
-3 -24 -9 -15 -4 7 -11 11 -14 7 -4 -3 10 -31 30 -61 32 -49 39 -54 55 -45 14
9 22 9 34 -1 26 -22 19 -34 -46 -76 -78 -51 -75 -50 -88 -25 -9 18 -8 25 5 40
16 18 16 21 -6 52 -43 63 -49 68 -70 55 -15 -9 -21 -8 -33 8 -9 11 -15 22 -15
25 0 6 121 90 130 90 4 0 11 -6 17 -12z m-191 -128 c-3 -10 10 -51 29 -90 52
-108 46 -128 -50 -170 -72 -32 -91 -23 -132 65 -21 43 -34 85 -32 101 3 31 37
59 94 79 21 7 39 19 39 27 0 7 9 18 20 25 16 9 22 8 28 -4 5 -8 7 -23 4 -33z
m83 0 c8 5 18 10 22 10 13 0 60 -78 53 -89 -11 -18 -23 -12 -41 18 -14 24 -21
28 -35 20 -10 -5 -21 -9 -26 -9 -16 0 -34 41 -27 62 l6 21 17 -21 c12 -16 20
-19 31 -12z m224 -104 c-6 -16 -128 -106 -144 -106 -13 0 -30 34 -30 59 0 24
18 28 26 6 9 -23 29 -18 90 25 59 42 69 44 58 16z m-552 -113 c14 -65 25 -119
24 -120 -1 -2 -16 -6 -33 -9 -33 -6 -33 -6 -47 57 -5 24 -9 26 -38 20 -34 -8
-36 -13 -24 -73 5 -23 1 -27 -25 -33 -17 -4 -32 -5 -35 -3 -5 6 -56 230 -52
233 2 2 17 6 35 9 30 7 31 6 38 -33 6 -34 11 -41 30 -41 45 0 54 9 44 43 -13
45 -11 55 9 60 46 12 47 11 74 -110z m125 -60 c24 -18 61 -16 112 7 57 26 60
25 26 -10 -32 -34 -114 -65 -146 -55 -39 13 -108 193 -83 218 4 4 22 -28 40
-71 19 -42 42 -83 51 -89z m-225 85 c-6 -6 -15 -7 -21 -4 -15 9 -14 39 1 54
10 10 15 7 22 -13 5 -17 4 -31 -2 -37z m-235 32 c27 0 43 -32 43 -85 0 -63
-21 -85 -82 -85 -36 0 -38 -1 -38 -34 0 -30 -3 -34 -31 -38 -17 -3 -32 0 -34
6 -2 6 -5 61 -8 123 l-3 112 50 4 c28 2 60 2 71 0 11 -1 25 -3 32 -3z m123
-132 c21 -96 22 -98 51 -98 21 0 27 -4 23 -15 -6 -14 -70 -32 -79 -23 -3 3
-17 57 -31 121 -22 98 -24 120 -13 133 12 15 14 14 21 -2 4 -11 17 -63 28
-116z m-245 -128 c29 -6 30 -6 8 -18 -12 -7 -35 -12 -52 -12 l-31 0 0 128 c0
89 4 132 13 141 10 10 14 -12 22 -111 l10 -123 30 -5z m395 100 c10 -36 14
-40 43 -40 l32 -1 -24 -19 c-13 -11 -33 -20 -46 -20 -18 0 -26 9 -39 50 -9 28
-14 55 -11 60 14 22 35 8 45 -30z m-294 -35 c-25 -19 -46 -19 -46 0 0 10 10
15 33 15 30 -1 31 -1 13 -15z"/>
    <path d="M3317 1373 c-48 -36 -58 -55 -17 -33 12 6 23 10 24 8 1 -2 23 -33 49
-69 l47 -67 -23 -15 c-12 -8 -19 -18 -15 -22 8 -8 98 54 98 67 0 5 -11 1 -24
-7 -23 -15 -24 -15 -72 56 l-49 71 23 18 c42 35 7 28 -41 -7z"/>
    <path d="M3165 1301 c6 -21 -9 -36 -46 -44 -38 -10 -79 -45 -79 -70 0 -12 14
-51 30 -86 l30 -64 39 6 c51 7 91 34 91 62 0 13 -13 52 -29 87 -19 43 -27 74
-23 96 3 21 0 32 -8 32 -6 0 -9 -8 -5 -19z m26 -127 c34 -74 31 -86 -30 -111
-31 -13 -35 -13 -51 4 -9 10 -27 42 -40 72 l-24 53 27 24 c16 14 41 24 58 24
28 0 33 -6 60 -66z"/>
    <path d="M3095 1206 c-18 -13 -17 -15 5 -70 19 -44 28 -56 46 -56 42 0 48 24
20 85 -26 57 -39 65 -71 41z m60 -45 c22 -44 23 -50 9 -62 -13 -10 -17 -10
-25 2 -5 8 -9 19 -9 25 0 6 -9 22 -21 35 -19 22 -19 24 -3 36 10 7 19 13 21
13 1 0 14 -22 28 -49z"/>
    <path d="M2890 1159 c0 -8 4 -30 9 -51 l9 -36 -44 -11 c-73 -19 -81 -16 -89
29 -4 22 -12 43 -17 46 -7 5 -9 -1 -5 -17 3 -13 13 -61 23 -106 10 -46 21 -83
26 -83 5 0 7 8 4 18 -2 9 -7 31 -11 49 -6 31 -6 31 49 43 31 6 60 9 65 6 4 -3
11 -24 15 -46 3 -23 10 -39 15 -36 9 6 -29 189 -42 202 -4 4 -7 1 -7 -7z"/>
    <path d="M2491 1063 c1 -27 4 -73 9 -103 6 -47 7 -49 9 -17 l1 37 49 0 c58 0
81 18 81 61 0 58 -14 69 -85 69 l-65 0 1 -47z m117 28 c8 -5 12 -23 10 -47 -3
-36 -6 -40 -39 -48 -57 -14 -69 -5 -69 54 l0 50 43 0 c23 0 48 -4 55 -9z"/>
    <path d="M2530 1061 c0 -32 11 -51 30 -51 25 0 43 25 35 50 -9 28 -65 29 -65
1z m50 -16 c0 -16 -6 -25 -15 -25 -9 0 -15 9 -15 25 0 16 6 25 15 25 9 0 15
-9 15 -25z"/>
    <path d="M2310 1420 c0 -15 5 -20 18 -18 9 2 17 10 17 18 0 8 -8 16 -17 18
-13 2 -18 -3 -18 -18z"/>
    <path d="M1538 1420 c-26 -16 -61 -79 -55 -100 4 -15 0 -20 -14 -20 -22 0 -59
-37 -59 -60 0 -21 106 -98 145 -106 54 -10 111 12 136 52 12 20 22 49 21 65 0
22 4 29 18 29 17 0 50 39 50 59 0 5 -25 28 -57 50 -50 36 -63 41 -112 41 -31
0 -64 -5 -73 -10z m33 -34 c-29 -46 -26 -77 9 -111 16 -16 28 -30 26 -32 -6
-7 -116 69 -116 79 0 19 31 67 52 82 39 28 52 20 29 -18z m132 -3 c58 -39 67
-53 44 -71 -27 -23 -62 -24 -81 -3 -23 25 -10 28 16 4 10 -9 21 -14 24 -11 3
3 -9 16 -26 28 -26 19 -34 20 -41 9 -6 -10 3 -25 28 -51 42 -43 41 -67 -6
-112 -28 -27 -33 -28 -58 -17 -15 7 -49 28 -75 47 -42 31 -46 37 -35 55 16 25
25 24 71 -11 36 -28 56 -31 56 -10 0 5 -13 25 -30 43 -16 19 -30 44 -30 55 0
23 52 82 72 82 8 0 40 -17 71 -37z m-213 -102 c0 -6 -4 -13 -10 -16 -21 -13
-8 -33 51 -76 66 -47 64 -63 -4 -30 -66 33 -109 73 -101 95 9 24 64 47 64 27z"/>
    <path d="M1607 1372 c-25 -27 -21 -55 13 -87 34 -33 38 -55 12 -78 -17 -16
-22 -15 -67 18 -27 19 -51 32 -54 29 -7 -7 48 -50 82 -65 24 -10 31 -9 52 11
33 31 32 45 -10 91 -34 38 -35 40 -19 64 9 14 20 25 24 25 4 0 26 -14 48 -30
50 -36 57 -22 9 14 -40 31 -68 33 -90 8z"/>
    <path d="M1893 1383 c-29 -6 -46 -28 -47 -61 -1 -17 -9 -30 -25 -38 -42 -21
-112 -98 -142 -156 -16 -32 -29 -61 -29 -66 0 -5 15 -16 34 -25 26 -12 42 -14
68 -7 18 6 34 10 36 10 1 0 0 -11 -4 -25 -5 -21 -1 -27 30 -41 30 -15 41 -16
75 -5 35 10 43 19 67 69 21 46 27 73 28 137 1 61 5 84 19 97 35 37 17 79 -46
106 -15 7 -31 11 -35 11 -4 -1 -17 -4 -29 -6z m19 -30 c6 -27 -13 -63 -34 -63
-10 0 -18 5 -18 10 0 6 8 10 17 10 15 0 14 2 -3 15 -19 15 -19 15 0 30 26 19
34 19 38 -2z m89 -20 c13 -16 12 -17 -3 -4 -10 7 -18 15 -18 17 0 8 8 3 21
-13z m-26 -22 c-3 -6 -18 -11 -33 -11 -22 0 -24 -2 -12 -11 10 -7 11 -9 2 -7
-23 6 -14 23 13 26 14 2 25 8 25 14 0 6 3 9 6 5 3 -3 3 -10 -1 -16z m15 -26
c-7 -8 -20 -15 -29 -14 -11 0 -9 3 7 9 12 5 22 15 22 21 0 7 3 9 6 6 4 -4 1
-13 -6 -22z m-61 -29 l47 -25 -4 -63 c-3 -54 -45 -178 -59 -178 -2 0 -17 7
-34 15 -28 15 -29 17 -15 44 15 27 14 28 -20 44 -34 17 -35 17 -46 -8 -11 -26
-32 -31 -57 -16 -24 15 16 99 77 159 29 28 55 52 58 52 2 0 26 -11 53 -24z
m-122 -19 c-38 -33 -107 -159 -89 -165 5 -1 17 -9 27 -16 17 -12 17 -13 -2
-18 -11 -3 -34 1 -51 8 l-31 13 22 53 c23 56 118 158 147 158 9 0 1 -13 -23
-33z m37 -160 c15 -11 16 -17 7 -35 -15 -28 -15 -29 16 -45 26 -14 26 -15 5
-21 -31 -10 -86 20 -77 42 7 15 11 35 14 65 1 11 15 9 35 -6z"/>
    <path d="M1833 1208 c-44 -47 -77 -102 -70 -121 2 -7 10 0 17 16 16 33 18 33
81 2 44 -23 48 -28 39 -46 -6 -11 -9 -25 -7 -32 8 -24 49 78 54 134 5 56 5 58
-25 73 -17 9 -35 16 -39 16 -5 0 -27 -19 -50 -42z m81 16 c12 -5 16 -20 16
-59 0 -30 -4 -56 -9 -59 -12 -8 -111 34 -111 47 0 15 61 77 76 77 7 0 19 -3
28 -6z"/>
    <path d="M1860 1185 c-26 -27 -26 -27 9 -45 28 -14 43 0 39 39 -4 34 -20 36
-48 6z m36 -11 c-3 -9 -6 -18 -6 -20 0 -2 -7 -4 -15 -4 -18 0 -19 12 -3 28 17
17 31 15 24 -4z"/>
    <path d="M2044 1191 c-28 -17 -34 -30 -58 -125 -33 -133 -33 -144 1 -157 27
-10 41 -9 90 6 16 5 21 3 20 -11 -2 -13 9 -22 36 -31 53 -18 103 6 117 56 40
156 52 213 43 222 -20 20 -69 27 -94 13 -22 -11 -26 -10 -44 12 -28 33 -72 40
-111 15z m-4 -121 c-16 -62 -27 -117 -24 -122 3 -4 14 -8 25 -8 23 0 25 -15 4
-24 -24 -9 -75 5 -75 21 0 8 11 60 25 116 18 69 33 108 47 120 11 10 22 16 24
14 2 -1 -10 -54 -26 -117z m125 57 l32 -58 12 46 c11 44 13 47 39 40 15 -4 29
-9 31 -11 9 -9 -51 -234 -62 -234 -40 1 -56 13 -51 39 3 15 -4 46 -17 76 -25
56 -23 57 -49 -43 -10 -39 -13 -42 -38 -36 -15 4 -29 9 -31 11 -3 2 8 55 23
119 27 111 29 115 54 112 19 -2 33 -17 57 -61z m35 3 c0 -11 -4 -20 -9 -20
-11 0 -22 26 -14 34 12 12 23 5 23 -14z m-51 -126 c6 -14 9 -41 5 -59 -5 -29
-3 -33 21 -39 31 -8 24 -26 -10 -26 -55 0 -67 29 -49 119 8 38 17 39 33 5z"/>
    <path d="M2091 1123 c-33 -129 -38 -153 -30 -153 4 0 13 18 19 40 5 22 15 58
20 80 6 22 12 40 15 40 11 0 86 -157 82 -172 -3 -10 -2 -20 3 -23 4 -3 19 40
33 95 13 55 21 100 16 100 -7 0 -15 -24 -35 -104 -7 -27 -9 -25 -48 50 -23 43
-46 80 -53 82 -7 2 -16 -13 -22 -35z"/>
  </g>
</svg>
